<?xml version="1.0" encoding="utf-8"?>
<?xml-stylesheet type="text/xsl" href="rss1.xsl"?>
<rss version="2.0" xmlns:atom="http://www.w3.org/2005/Atom" xmlns:content="http://purl.org/rss/1.0/modules/content/" xmlns:dc="http://purl.org/dc/elements/1.1/" xmlns:media="http://search.yahoo.com/mrss/">
<channel>
 <title>Getty</title>
 <link>http://www.gettyimg.com/</link>
 <atom:link href="http://www.gettyimg.com/" rel="self" type="application/rss+xml" />

 
                <item>
                <title><![CDATA[【HD Live Performances】FEED - Anitta - Rock In Rio VIII 2019 1080i HDTV FEED MP2 H.264]]></title>
                <link><![CDATA[https://sharemania.us/threads/anitta-rock-in-rio-viii-2019-1080i-hdtv-feed-mp2-h-264.243440/]]></link>
                <description><![CDATA[<article>
<blockquote class="messageText SelectQuoteContainer ugc baseHtml">
<img src="https://i.ibb.co/Y2rjYJj/Rock-In-Rio-VIII-2019-Anitta-1080i-HDTV-FEED-MP2-H-264-No-GRP-mkv.png" class="bbCodeImage LbImage" alt="[​IMG]" data-url="https://i.ibb.co/Y2rjYJj/Rock-In-Rio-VIII-2019-Anitta-1080i-HDTV-FEED-MP2-H-264-No-GRP-mkv.png" style=""><br>
<div class="ToggleTriggerAnchor bbCodeSpoilerContainer">
<button type="button" class="button bbCodeSpoilerButton ToggleTrigger Tooltip JsOnly" data-target="> .SpoilerTarget"><span>Spoiler: <span class="SpoilerTitle">MediaInfo</span></span></button>
<div class="SpoilerTarget bbCodeSpoilerText">
<div class="bbCodeBlock bbCodeCode">
<div class="type">Code:</div>
<pre>General
Format                                   : Matroska
Format version                           : Version 4
File size                                : 6.23 GiB
Duration                                 : 57 min 37 s
Overall bit rate mode                    : Variable
Overall bit rate                         : 15.5 Mb/s
Frame rate                               : 59.940 FPS
Encoded date                             : 2019-10-08 23:00:37 UTC
Writing application                      : mkvmerge v38.0.0 ('The Silent Type') 64-bit
Writing library                          : libebml v1.3.9 + libmatroska v1.5.2

Video
ID                                       : 1
Format                                   : AVC
Format/Info                              : Advanced Video Codec
Format profile                           : Main@L4
Format settings                          : CABAC / 4 Ref Frames
Format settings, CABAC                   : Yes
Format settings, Reference frames        : 4 frames
Format settings, GOP                     : M=3, N=15
Format settings, Slice count             : 6 slices per frame
Codec ID                                 : V_MPEG4/ISO/AVC
Duration                                 : 57 min 37 s
Bit rate mode                            : Variable
Bit rate                                 : 15.0 Mb/s
Width                                    : 1 920 pixels
Height                                   : 1 080 pixels
Display aspect ratio                     : 16:9
Frame rate mode                          : Variable
Frame rate                               : 59.940 (60000/1001) FPS
Original frame rate                      : 29.970 (30000/1001) FPS
Color space                              : YUV
Chroma subsampling                       : 4:2:0
Bit depth                                : 8 bits
Scan type                                : Interlaced
Scan type, store method                  : Separated fields
Scan order                               : Top Field First
Bits/(Pixel*Frame)                       : 0.121
Stream size                              : 6.03 GiB (97%)
Language                                 : English
Default                                  : Yes
Forced                                   : No
Color range                              : Limited
Color primaries                          : BT.709
Transfer characteristics                 : BT.709
Matrix coefficients                      : BT.709

Audio #1
ID                                       : 2
Format                                   : MPEG Audio
Format version                           : Version 1
Format profile                           : Layer 2
Codec ID                                 : A_MPEG/L2
Codec ID/Hint                            : MP2
Duration                                 : 57 min 37 s
Bit rate mode                            : Constant
Bit rate                                 : 256 kb/s
Channel(s)                               : 2 channels
Sampling rate                            : 48.0 kHz
Frame rate                               : 41.667 FPS (1152 SPF)
Compression mode                         : Lossy
Delay relative to video                  : 84 ms
Stream size                              : 106 MiB (2%)
Language                                 : English
Default                                  : Yes
Forced                                   : No

Audio #2
ID                                       : 3
Format                                   : MPEG Audio
Format version                           : Version 1
Format profile                           : Layer 2
Codec ID                                 : A_MPEG/L2
Codec ID/Hint                            : MP2
Duration                                 : 57 min 37 s
Bit rate mode                            : Constant
Bit rate                                 : 256 kb/s
Channel(s)                               : 2 channels
Sampling rate                            : 48.0 kHz
Frame rate                               : 41.667 FPS (1152 SPF)
Compression mode                         : Lossy
Delay relative to video                  : 84 ms
Stream size                              : 106 MiB (2%)
Language                                 : English
Default                                  : No
Forced                                   : No
</pre>
</div></div>
</div>
<div class="bbCodeBlock bbCodeVfcHH HiddenContent">
<div class="attribution type">Hidden Content:</div>
<blockquote>You must reply before you can see the hidden data contained here.</blockquote>
</div>
<div class="messageTextEndMarker">&nbsp;</div>
</blockquote>
</article>]]></description>
                <author><![CDATA[itunesboy]]></author>
                </item>

                
                <item>
                <title><![CDATA[【Requests】[REQ AUD] - Noah Kahan Stick season forever]]></title>
                <link><![CDATA[https://sharemania.us/threads/noah-kahan-stick-season-forever.243441/]]></link>
                <description><![CDATA[<article>
<blockquote class="messageText SelectQuoteContainer ugc baseHtml">
Can u pls share noah stick seasons forever
<div class="messageTextEndMarker">&nbsp;</div>
</blockquote>
</article>]]></description>
                <author><![CDATA[grouchy_Ads]]></author>
                </item>

                
                <item>
                <title><![CDATA[【Bugs!】IVE -  HEYA [Bugs 4K] (H.264/MP4)]]></title>
                <link><![CDATA[https://sharemania.us/threads/ive-heya-bugs-4k-h-264-mp4.243442/]]></link>
                <description><![CDATA[<article>
<blockquote class="messageText SelectQuoteContainer ugc baseHtml">
BIG THANKS to RESPECTIVE OWNERS <br>
<br>
<img src="https://i.imgur.com/PsO9CKn.jpeg" class="bbCodeImage LbImage" alt="[​IMG]" data-url="https://i.imgur.com/PsO9CKn.jpeg" style=""> <br>
<br>
<div class="bbCodeBlock bbCodeVfcHH HiddenContent">
<div class="attribution type">Hidden Content:</div>
<blockquote>You must reply before you can see the hidden data contained here.</blockquote>
</div>
<div class="messageTextEndMarker">&nbsp;</div>
</blockquote>
</article>]]></description>
                <author><![CDATA[Chaewon]]></author>
                </item>

                </channel></rss>